<?xml version="1.0" encoding="utf-8"?>
<!-- Generator: Adobe Illustrator 20.0.0, SVG Export Plug-In . SVG Version: 6.00 Build 0)  -->
<svg version="1.1" id="Layer_1" xmlns="http://www.w3.org/2000/svg" xmlns:xlink="http://www.w3.org/1999/xlink" x="0px" y="0px"
	 viewBox="0 0 64 64" style="enable-background:new 0 0 64 64;" xml:space="preserve">
<style type="text/css">
	.st0{fill:#1D1F21;}
</style>
<title>Asset 10</title>
<g id="Layer_2">
	<g id="Layer_1-2">
		<g id="_Group_">
			<g id="_Group_2">
				<g id="_Group_3">
					<g id="_Group_4">
						<rect x="27.9" y="51.6" class="st0" width="9.3" height="2"/>
					</g>
					<g id="_Group_5">
						
							<rect x="45.3" y="38.2" transform="matrix(0.2423 -0.9702 0.9702 0.2423 -0.4714 77.7984)" class="st0" width="8.5" height="2"/>
					</g>
					<g id="_Group_6">
						
							<rect x="42.4" y="14.8" transform="matrix(0.5547 -0.8321 0.8321 0.5547 3.8892 44.3483)" class="st0" width="2" height="7.4"/>
					</g>
					<g id="_Group_7">
						
							<rect x="16.6" y="18.1" transform="matrix(0.769 -0.6392 0.6392 0.769 -7.4231 17.6201)" class="st0" width="8.1" height="2"/>
					</g>
					<g id="_Group_8">
						<rect x="13.4" y="34.9" transform="matrix(0.9762 -0.217 0.217 0.9762 -8.2713 4.0775)" class="st0" width="2" height="9.5"/>
					</g>
				</g>
				<g id="_Group_9">
					<g id="_Group_10">
						<path class="st0" d="M28.1,16.7V5.3L38,11L28.1,16.7z M30.1,8.7v4.5L34,11L30.1,8.7z"/>
					</g>
					<g id="_Group_11">
						<path class="st0" d="M32,21c-5.5,0-10-4.5-10-10S26.5,1,32,1s10,4.5,10,10S37.5,21,32,21z M32,3c-4.4,0-8,3.6-8,8s3.6,8,8,8
							s8-3.6,8-8S36.4,3,32,3z"/>
					</g>
					<g id="_Group_12">
						<g id="_Group_13">
							<path class="st0" d="M10,37c-1.1,0-2.1-0.2-3.1-0.5c-5.2-1.9-7.8-7.7-5.8-12.9c1.8-4.8,7-7.5,12-6.1l0,0
								c5.2,1.7,8.1,7.4,6.3,12.6C18.1,34.2,14.3,37,10,37z M10,19c-4.4,0-8,3.6-8,8c0,4.4,3.6,8,8,8s8-3.6,8-8
								c0-3.5-2.2-6.5-5.5-7.6l0,0C11.7,19.1,10.8,19,10,19z"/>
						</g>
						<g id="_Group_14">
							<path class="st0" d="M15.1,33H5V21h10.1V33z M7,31h6.1v-8H7V31z"/>
						</g>
						<g id="_Group_15">
							<rect x="6" y="28" class="st0" width="9" height="2"/>
						</g>
					</g>
					<g id="_Group_16">
						<g id="_Group_17">
							<path class="st0" d="M19,63c-5.5,0-10-4.5-10-10c0-2.1,0.7-4.2,1.9-5.9l0,0c3.2-4.5,9.5-5.5,14-2.2c4.5,3.2,5.5,9.5,2.2,14
								c-1.6,2.2-3.9,3.6-6.5,4C20.1,63,19.5,63,19,63z M12.5,48.3c-2.6,3.6-1.8,8.6,1.8,11.2s8.6,1.8,11.2-1.8
								c2.6-3.6,1.8-8.6-1.8-11.2c0,0,0,0,0,0C20.2,43.9,15.2,44.7,12.5,48.3C12.6,48.2,12.5,48.3,12.5,48.3z"/>
						</g>
						<g id="_Group_18">
							<g id="_Group_19">
								<rect x="15" y="49" class="st0" width="8" height="2"/>
							</g>
							<g id="_Group_20">
								<rect x="15" y="51" class="st0" width="2" height="1"/>
							</g>
							<g id="_Group_21">
								<rect x="21" y="51" class="st0" width="2" height="1"/>
							</g>
							<g id="_Group_22">
								<rect x="18" y="51" class="st0" width="2" height="7"/>
							</g>
						</g>
					</g>
					<g id="_Group_23">
						<g id="_Group_24">
							<path class="st0" d="M54,37c-5.5,0-10-4.5-10-10c0-2.1,0.7-4.2,1.9-5.9l0,0c3.2-4.5,9.5-5.5,14-2.2s5.5,9.5,2.2,14
								c-1.6,2.2-3.9,3.6-6.5,4C55.1,37,54.5,37,54,37z M54,19c-2.6,0-5,1.2-6.5,3.3l0,0c-2.6,3.6-1.8,8.6,1.8,11.2
								s8.6,1.8,11.2-1.8c2.6-3.6,1.8-8.6-1.8-11.2C57.3,19.5,55.7,19,54,19z"/>
						</g>
						<g id="_Group_25">
							<g id="_Group_26">
								<path class="st0" d="M51,32c-1.4,0-2.5-1.1-2.5-2.5S49.6,27,51,27s2.5,1.1,2.5,2.5S52.4,32,51,32z M51,29
									c-0.3,0-0.5,0.2-0.5,0.5S50.7,30,51,30s0.5-0.2,0.5-0.5S51.3,29,51,29z"/>
							</g>
							<g id="_Group_27">
								<path class="st0" d="M57,32c-1.4,0-2.5-1.1-2.5-2.5S55.6,27,57,27s2.5,1.1,2.5,2.5S58.4,32,57,32z M57,29
									c-0.3,0-0.5,0.2-0.5,0.5S56.7,30,57,30s0.5-0.2,0.5-0.5S57.3,29,57,29z"/>
							</g>
							<g id="_Group_28">
								<polygon class="st0" points="56.5,29.7 54.5,29.3 55.7,24.5 51.8,24.5 50.5,29.7 48.5,29.3 50.2,22.5 58.3,22.5 								"/>
							</g>
						</g>
					</g>
					<g id="_Group_29">
						<g id="_Group_30">
							<path class="st0" d="M46,63c-5.5,0-10-4.5-10-10c0-2.1,0.7-4.2,1.9-5.9l0,0c3.2-4.5,9.5-5.5,14-2.2c4.5,3.2,5.5,9.5,2.2,14
								c-1.6,2.2-3.9,3.6-6.5,4C47.1,63,46.5,63,46,63z M46,45c-2.6,0-5,1.2-6.5,3.3l0,0c-2.6,3.6-1.8,8.6,1.8,11.2
								s8.6,1.8,11.2-1.8c2.6-3.6,1.8-8.6-1.8-11.2C49.3,45.5,47.7,45,46,45z"/>
						</g>
						<g id="_Group_31">
							<polygon class="st0" points="51.6,61.1 49.6,60.9 50,56.2 47.2,49 44.8,49 42,56.2 42.4,60.9 40.4,61.1 40,55.8 43.5,47 
								48.6,47 52,55.8 							"/>
						</g>
						<g id="_Group_32">
							<g id="_Group_33">
								<rect x="45" y="48" class="st0" width="2" height="6.5"/>
							</g>
							<g id="_Group_34">
								<path class="st0" d="M46,58c-1.4,0-2.5-1.1-2.5-2.5S44.6,53,46,53s2.5,1.1,2.5,2.5S47.4,58,46,58z M46,55
									c-0.3,0-0.5,0.2-0.5,0.5S45.7,56,46,56s0.5-0.2,0.5-0.5S46.3,55,46,55z"/>
							</g>
						</g>
					</g>
				</g>
			</g>
			<g id="_Group_35">
				<g id="_Group_36">
					<path class="st0" d="M34.2,44.3L34,43.2c-0.5-1.1-1.8-1.6-2.9-1.1c-0.5,0.2-0.9,0.6-1.1,1.1l-0.2,1.1l-1-0.3
						c-1.6-0.5-3-1.3-4.2-2.5l-0.8-0.7l0.8-0.7c0.7-1,0.5-2.3-0.5-3c-0.4-0.3-1-0.4-1.5-0.4l-1,0.3l-0.2-1.1c-0.4-1.6-0.4-3.3,0-4.9
						l0.2-1.1l1,0.3c1.2,0.1,2.3-0.7,2.4-1.9c0.1-0.5-0.1-1-0.4-1.5l-0.8-0.7l0.8-0.7c1.2-1.1,2.7-2,4.2-2.5l1-0.3l0.2,1.1
						c0.5,1.1,1.8,1.6,2.9,1.1c0.5-0.2,0.9-0.6,1.1-1.1l0.2-1.1l1,0.3c1.6,0.5,3,1.3,4.2,2.5l0.8,0.7l-0.8,0.7c-0.7,1-0.5,2.3,0.5,3
						c0.4,0.3,1,0.4,1.5,0.4l1-0.3l0.3,1.1c0.4,1.6,0.4,3.3,0,4.9L42.5,37l-1-0.3c-1.2-0.1-2.3,0.7-2.4,1.9c-0.1,0.5,0.1,1,0.4,1.5
						l0.8,0.7l-0.8,0.7c-1.2,1.1-2.7,2-4.2,2.5L34.2,44.3z M32,39.9c1.4,0,2.7,0.6,3.5,1.8c0.7-0.3,1.4-0.7,2-1.1
						c-0.6-1.3-0.5-2.7,0.2-3.9l0,0c0.7-1.2,1.9-2,3.3-2.1c0.1-0.7,0.1-1.5,0-2.3c-2.4-0.2-4.1-2.3-3.8-4.7c0-0.4,0.2-0.9,0.3-1.3
						c-0.6-0.5-1.3-0.8-2-1.1c-1.4,1.9-4,2.4-6,1c-0.4-0.3-0.7-0.6-1-1c-0.7,0.3-1.3,0.7-2,1.1c1,2.2,0,4.7-2.2,5.7
						c-0.4,0.2-0.8,0.3-1.3,0.3c-0.1,0.7-0.1,1.5,0,2.3c2.4,0.2,4.1,2.3,3.8,4.7c0,0.4-0.2,0.9-0.3,1.3c0.6,0.5,1.2,0.8,1.9,1.1
						C29.3,40.6,30.6,39.9,32,39.9z"/>
				</g>
				<g id="_Group_37">
					<path class="st0" d="M32,37.4c-2.2,0-4-1.8-4-4s1.8-4,4-4s4,1.8,4,4S34.2,37.4,32,37.4z M32,31.4c-1.1,0-2,0.9-2,2
						c0,1.1,0.9,2,2,2c1.1,0,2-0.9,2-2S33.1,31.4,32,31.4z"/>
				</g>
			</g>
		</g>
	</g>
</g>
</svg>
