<?xml version="1.0" encoding="utf-8"?>
<!-- Generator: Adobe Illustrator 20.0.0, SVG Export Plug-In . SVG Version: 6.00 Build 0)  -->
<svg version="1.1" id="Layer_1" xmlns="http://www.w3.org/2000/svg" xmlns:xlink="http://www.w3.org/1999/xlink" x="0px" y="0px"
	 viewBox="0 0 64 64" style="enable-background:new 0 0 64 64;" xml:space="preserve">
<style type="text/css">
	.st0{fill:#1D1F21;}
</style>
<title>Asset 5</title>
<g id="Layer_2">
	<g id="Layer_1-2">
		<g id="_Group_">
			<g id="_Group_2">
				<g id="_Group_3">
					<g id="_Group_4">
						<path class="st0" d="M59,54.5H37c-2.8,0-5-2.2-5-5v-10h2v10c0,1.7,1.3,3,3,3h22c1.7,0,3-1.3,3-3v-42c0-1.7-1.3-3-3-3H37
							c-1.7,0-3,1.3-3,3v10h-2v-10c0-2.8,2.2-5,5-5h22c2.8,0,5,2.2,5,5v42C64,52.3,61.8,54.5,59,54.5z"/>
					</g>
					<g id="_Group_5">
						<rect x="33" y="8.5" class="st0" width="28" height="2"/>
					</g>
					<g id="_Group_6">
						<rect x="45" y="5.6" class="st0" width="6" height="2"/>
					</g>
					<g id="_Group_7">
						<rect x="35" y="46.5" class="st0" width="28" height="2"/>
					</g>
				</g>
				<g id="_Group_8">
					<g id="_Group_9">
						<g id="_Group_10">
							<path class="st0" d="M30,51.5H4.9c-2.7,0-4.9-2.2-4.9-4.9l0.1-36.2c0-2.7,2.2-4.9,4.9-4.9l0,0h25v2H5c-1.6,0-2.9,1.3-2.9,2.9
								L2,46.6c0,1.6,1.3,2.9,2.9,2.9H30V51.5z"/>
						</g>
						<g id="_Group_11">
							<rect x="3" y="43.5" class="st0" width="27" height="2"/>
						</g>
						<g id="_Group_12">
							<rect x="29" y="46.5" class="st0" width="1" height="2"/>
						</g>
						<g id="_Group_13">
							<polygon class="st0" points="30,42.5 4,42.5 4,8.5 30,8.5 30,10.5 6,10.5 6,40.5 30,40.5 							"/>
						</g>
					</g>
					<g id="_Group_14">
						<g id="_Group_15">
							<polygon class="st0" points="31,61.5 21.7,61.5 25.3,49.5 30,49.5 30,51.5 26.7,51.5 24.3,59.5 31,59.5 							"/>
						</g>
						<g id="_Group_16">
							<polygon class="st0" points="42.3,61.5 33,61.5 33,59.5 39.7,59.5 38.5,55.8 40.5,55.2 							"/>
						</g>
						<g id="_Group_17">
							<rect x="19.8" y="59.5" class="st0" width="24.1" height="2"/>
						</g>
					</g>
				</g>
			</g>
			<g id="_Group_18">
				<g id="_Group_19">
					<g id="_Group_20">
						<rect x="9" y="13.5" class="st0" width="2" height="2"/>
					</g>
					<g id="_Group_21">
						<rect x="13" y="13.5" class="st0" width="2" height="2"/>
					</g>
					<g id="_Group_22">
						<rect x="17" y="13.5" class="st0" width="2" height="2"/>
					</g>
				</g>
				<g id="_Group_23">
					<g id="_Group_24">
						<rect x="36" y="13.5" class="st0" width="24" height="2"/>
					</g>
					<g id="_Group_25">
						<rect x="21" y="13.5" class="st0" width="9" height="2"/>
					</g>
				</g>
			</g>
			<g id="_Group_26">
				<g id="_Group_27">
					<g id="_Group_28">
						<path class="st0" d="M34,38.5c-5.5,0-10-4.5-10-10s4.5-10,10-10s10,4.5,10,10S39.5,38.5,34,38.5z M34,20.5c-4.4,0-8,3.6-8,8
							s3.6,8,8,8s8-3.6,8-8S38.4,20.5,34,20.5z"/>
					</g>
					<g id="_Group_29">
						<g id="_Group_30">
							<path class="st0" d="M40.2,33.1H27.8l-0.6-3c0-2,3.3-3.3,4.7-3.8l0.6-0.2l0.4,0.5c0.2,0.3,0.6,0.5,1,0.5c0.4,0,0.8-0.2,1-0.5
								l0.4-0.5l0.6,0.2c1.4,0.5,4.7,1.8,4.7,3.8v0.2L40.2,33.1z M29.4,31.1h9.2l0.2-1c-0.8-0.8-1.7-1.4-2.8-1.7c-1.2,1-2.9,1-4.1,0
								c-1,0.3-2,0.9-2.8,1.7L29.4,31.1z"/>
						</g>
						<g id="_Group_31">
							<path class="st0" d="M34,29.1c-1,0-1.9-0.5-2.6-1.2c-0.7-0.9-1.1-2-1.1-3.1c-0.1-1.9,1.3-3.5,3.2-3.6c0.2,0,0.3,0,0.5,0
								c1.9-0.1,3.5,1.3,3.7,3.2c0,0.2,0,0.3,0,0.5c0,1.1-0.4,2.2-1.1,3.1C35.9,28.6,35,29.1,34,29.1z M34,23.1
								c-0.8-0.1-1.5,0.4-1.7,1.2c0,0.1,0,0.3,0,0.4c0,0.6,0.2,1.3,0.6,1.8c0.2,0.3,0.6,0.5,1,0.5c0.4,0,0.8-0.2,1-0.5
								c0.4-0.5,0.6-1.1,0.6-1.8c0.1-0.8-0.5-1.5-1.3-1.6C34.2,23.1,34.1,23.1,34,23.1L34,23.1z"/>
						</g>
					</g>
				</g>
				<g id="_Group_32">
					<g id="_Group_33">
						<g id="_Group_34">
							<rect x="46" y="27.5" class="st0" width="2" height="2"/>
						</g>
						<g id="_Group_35">
							<rect x="50" y="27.5" class="st0" width="2" height="2"/>
						</g>
						<g id="_Group_36">
							<rect x="54" y="27.5" class="st0" width="2" height="2"/>
						</g>
					</g>
					<g id="_Group_37">
						<g id="_Group_38">
							<rect x="12" y="27.5" class="st0" width="2" height="2"/>
						</g>
						<g id="_Group_39">
							<rect x="16" y="27.5" class="st0" width="2" height="2"/>
						</g>
						<g id="_Group_40">
							<rect x="20" y="27.5" class="st0" width="2" height="2"/>
						</g>
					</g>
				</g>
			</g>
		</g>
	</g>
</g>
</svg>
