<svg xmlns="http://www.w3.org/2000/svg" viewBox="0 0 64 64"><defs><style>.cls-1{fill:#1d1f21;}</style></defs><title>Asset 19</title><g id="Layer_2" data-name="Layer 2"><g id="Layer_1-2" data-name="Layer 1"><polygon class="cls-1" points="64 51.61 40.26 51.61 40.26 49.55 61.94 49.55 61.94 2.06 2.06 2.06 2.06 49.55 23.74 49.55 23.74 51.61 0 51.61 0 0 64 0 64 51.61"/><rect class="cls-1" x="4.13" y="4.13" width="2.06" height="2.06"/><rect class="cls-1" x="8.26" y="4.13" width="2.06" height="2.06"/><rect class="cls-1" x="12.39" y="4.13" width="2.06" height="2.06"/><rect class="cls-1" x="1.03" y="8.26" width="61.94" height="2.06"/><path class="cls-1" d="M32,64a9.3,9.3,0,0,1-9.29-9.29V30.54L32,21.25l9.29,9.29V54.71A9.3,9.3,0,0,1,32,64ZM24.77,31.4V54.71a7.23,7.23,0,1,0,14.45,0V31.4L32,24.17Z"/><rect class="cls-1" x="23.74" y="51.61" width="16.52" height="2.06"/><rect class="cls-1" x="23.74" y="29.94" width="16.52" height="2.06"/><rect class="cls-1" x="27.87" y="30.97" width="2.06" height="17.55"/><rect class="cls-1" x="23.74" y="47.48" width="16.52" height="2.06"/><rect class="cls-1" x="34.06" y="30.97" width="2.06" height="17.55"/><rect class="cls-1" x="30.97" y="16.52" width="2.06" height="3.1"/><rect class="cls-1" x="24.52" y="18.25" width="2.06" height="3.1" transform="translate(-6.47 15.43) rotate(-30)"/><rect class="cls-1" x="19.79" y="22.97" width="2.06" height="3.1" transform="matrix(0.5, -0.87, 0.87, 0.5, -10.82, 30.29)"/><rect class="cls-1" x="17.55" y="29.94" width="3.1" height="2.06"/><rect class="cls-1" x="43.35" y="29.94" width="3.1" height="2.06"/><rect class="cls-1" x="41.63" y="23.48" width="3.1" height="2.06" transform="translate(-6.47 24.87) rotate(-29.99)"/><rect class="cls-1" x="36.9" y="18.76" width="3.1" height="2.06" transform="translate(2.09 43.2) rotate(-60.01)"/><polygon class="cls-1" points="59.87 39.23 40.26 39.23 40.26 37.16 57.81 37.16 57.81 14.45 6.19 14.45 6.19 37.16 23.74 37.16 23.74 39.23 4.13 39.23 4.13 12.39 59.87 12.39 59.87 39.23"/><rect class="cls-1" x="4.13" y="41.29" width="16.52" height="2.06"/><rect class="cls-1" x="4.13" y="45.42" width="16.52" height="2.06"/><rect class="cls-1" x="43.35" y="41.29" width="16.52" height="2.06"/><rect class="cls-1" x="43.35" y="45.42" width="16.52" height="2.06"/></g></g></svg>