<?xml version="1.0" encoding="utf-8"?>
<!-- Generator: Adobe Illustrator 20.0.0, SVG Export Plug-In . SVG Version: 6.00 Build 0)  -->
<svg version="1.1" id="Layer_1" xmlns="http://www.w3.org/2000/svg" xmlns:xlink="http://www.w3.org/1999/xlink" x="0px" y="0px"
	 viewBox="0 0 64 64" style="enable-background:new 0 0 64 64;" xml:space="preserve">
<style type="text/css">
	.st0{fill:#1D1F21;}
</style>
<title>Asset 42</title>
<g id="Layer_2">
	<g id="Layer_1-2">
		<g id="_Group_">
			<rect x="19" y="58" class="st0" width="26" height="2"/>
		</g>
		<g id="_Group_2">
			<path class="st0" d="M59.1,50H4.9C2.2,50,0,47.8,0,45.1V8.9C0,6.2,2.2,4,4.9,4c0,0,0,0,0,0h54.2C61.8,4,64,6.2,64,8.9v36.2
				C64,47.8,61.8,50,59.1,50z M4.9,6C3.3,6,2,7.3,2,8.9v36.2C2,46.7,3.3,48,4.9,48h54.2c1.6,0,2.9-1.3,2.9-2.9V8.9
				C62,7.3,60.7,6,59.1,6H4.9z"/>
		</g>
		<g id="_Group_3">
			<rect x="3" y="41" class="st0" width="58" height="2"/>
		</g>
		<g id="_Group_4">
			<rect x="30" y="44" class="st0" width="4" height="2"/>
		</g>
		<g id="_Group_5">
			<path class="st0" d="M42.3,60H21.7l3.6-12h13.5L42.3,60z M24.3,58h15.3l-2.4-8H26.7L24.3,58z"/>
		</g>
		<path class="st0" d="M59,39.5H5v-32h54V39.5z M7,37.5h50v-28H7V37.5z"/>
		<rect x="9" y="11.5" class="st0" width="2" height="2"/>
		<rect x="13" y="11.5" class="st0" width="2" height="2"/>
		<rect x="17" y="11.5" class="st0" width="2" height="2"/>
		<rect x="6" y="15.5" class="st0" width="52" height="2"/>
		<polygon class="st0" points="21.9,31.5 19.4,31.5 18,28.7 16.6,31.5 14.1,31.5 13,24.5 13,23.5 15,23.5 15,24.4 15.7,28.8 
			18,24.3 20.3,28.8 21,24.4 21,23.5 23,23.5 23,24.7 		"/>
		<polygon class="st0" points="49.8,31.5 47.4,31.5 46,28.7 44.6,31.5 42.2,31.5 41,24.5 41,23.5 43,23.5 43,24.4 43.7,28.8 
			46,24.3 48.3,28.8 49,24.4 49,23.5 51,23.5 51,24.7 		"/>
		<polygon class="st0" points="35.8,31.5 33.4,31.5 32,28.7 30.6,31.5 28.1,31.5 27,24.5 27,23.5 29,23.5 29,24.4 29.7,28.8 
			32,24.3 34.3,28.8 35,24.4 35,23.5 37,23.5 37,24.7 		"/>
		<rect x="9" y="19.5" class="st0" width="46" height="2"/>
		<rect x="9" y="33.5" class="st0" width="46" height="2"/>
		<rect x="24" y="29.5" class="st0" width="2" height="2"/>
		<rect x="38" y="29.5" class="st0" width="2" height="2"/>
	</g>
</g>
</svg>
