<?xml version="1.0" encoding="utf-8"?>
<!-- Generator: Adobe Illustrator 20.0.0, SVG Export Plug-In . SVG Version: 6.00 Build 0)  -->
<svg version="1.1" id="Layer_1" xmlns="http://www.w3.org/2000/svg" xmlns:xlink="http://www.w3.org/1999/xlink" x="0px" y="0px"
	 viewBox="0 0 64 64" style="enable-background:new 0 0 64 64;" xml:space="preserve">
<style type="text/css">
	.st0{fill:#1D1F21;}
</style>
<title>Asset 15</title>
<g id="Layer_2">
	<g id="Layer_1-2">
		<g id="_Group_">
			<g id="_Group_2">
				<g id="_Group_3">
					<g id="_Group_4">
						<path class="st0" d="M43.4,51.5l-0.9-1.8c12.5-5.8,17.9-20.7,12.1-33.2S33.9-1.5,21.4,4.3S3.5,25,9.3,37.6
							c2.5,5.3,6.8,9.6,12.1,12.1l-0.9,1.8C7.1,45.2,1.2,29.1,7.5,15.6s22.4-19.3,35.9-13s19.3,22.4,13,35.9
							C53.8,44.2,49.2,48.8,43.4,51.5z"/>
					</g>
					<g id="_Group_5">
						<rect x="31" y="1" class="st0" width="2" height="4.2"/>
					</g>
					<g id="_Group_6">
						
							<rect x="21.8" y="2.8" transform="matrix(0.9239 -0.3827 0.3827 0.9239 -0.1454 9.1234)" class="st0" width="2" height="4.2"/>
					</g>
					<g id="_Group_7">
						<g id="_Group_8">
							<rect x="14.1" y="8" transform="matrix(0.7071 -0.7071 0.7071 0.7071 -2.713 13.636)" class="st0" width="2" height="4.2"/>
						</g>
						<g id="_Group_9">
							
								<rect x="47.8" y="41.8" transform="matrix(0.707 -0.7072 0.7072 0.707 -16.7351 47.4228)" class="st0" width="2" height="4.2"/>
						</g>
					</g>
					<g id="_Group_10">
						<g id="_Group_11">
							
								<rect x="8.9" y="15.7" transform="matrix(0.3825 -0.9239 0.9239 0.3825 -10.3636 20.1825)" class="st0" width="2" height="4.2"/>
						</g>
						<g id="_Group_12">
							
								<rect x="53" y="34.1" transform="matrix(0.3825 -0.9239 0.9239 0.3825 -3.315415e-02 72.2607)" class="st0" width="2" height="4.2"/>
						</g>
					</g>
					<g id="_Group_13">
						<g id="_Group_14">
							<rect x="6" y="26" class="st0" width="4.2" height="2"/>
						</g>
						<g id="_Group_15">
							<rect x="53.8" y="26" class="st0" width="4.2" height="2"/>
						</g>
					</g>
					<g id="_Group_16">
						<g id="_Group_17">
							
								<rect x="7.8" y="35.1" transform="matrix(0.9238 -0.3828 0.3828 0.9238 -13.0758 6.543)" class="st0" width="4.2" height="2"/>
						</g>
						<g id="_Group_18">
							
								<rect x="52" y="16.9" transform="matrix(0.9238 -0.3828 0.3828 0.9238 -2.7223 22.0581)" class="st0" width="4.2" height="2"/>
						</g>
					</g>
					<g id="_Group_19">
						
							<rect x="13" y="42.9" transform="matrix(0.7071 -0.7071 0.7071 0.7071 -26.6146 23.5072)" class="st0" width="4.2" height="2"/>
					</g>
					<g id="_Group_20">
						
							<rect x="39.1" y="3.9" transform="matrix(0.3828 -0.9238 0.9238 0.3828 20.8414 41.0535)" class="st0" width="4.2" height="2"/>
					</g>
				</g>
				<g id="_Group_21">
					<g id="_Group_22">
						<path class="st0" d="M32,42.3c-8.4,0-15.3-6.8-15.3-15.3S23.6,11.7,32,11.7S47.3,18.6,47.3,27C47.3,35.4,40.4,42.3,32,42.3z
							 M32,13.8c-7.3,0-13.2,5.9-13.2,13.2S24.7,40.2,32,40.2c7.3,0,13.2-5.9,13.2-13.2C45.2,19.7,39.3,13.8,32,13.8z"/>
					</g>
					<g id="_Group_23">
						<g id="_Group_24">
							<path class="st0" d="M42.2,34.7H21.8v-5.2c0-2.9,5.4-5,7.1-5.5l0.6-0.2l0.5,0.5c0.9,1.1,2.5,1.4,3.7,0.5
								c0.2-0.1,0.3-0.3,0.5-0.5l0.5-0.5l0.6,0.2c1.7,0.6,7.1,2.6,7.1,5.5L42.2,34.7z M23.8,32.7h16.4v-3.2c0-0.9-2.6-2.4-5.1-3.4
								c-1.8,1.6-4.5,1.6-6.2,0c-2.5,1-5.1,2.5-5.1,3.4L23.8,32.7z"/>
						</g>
						<g id="_Group_25">
							<path class="st0" d="M32,27.4c-1.4,0-2.7-0.7-3.6-1.8c-1-1.3-1.6-2.9-1.6-4.5c-0.2-2.7,1.8-5,4.5-5.2c0.2,0,0.4,0,0.7,0
								c2.7-0.2,5,1.8,5.2,4.5c0,0.2,0,0.5,0,0.7c0,1.7-0.5,3.3-1.6,4.5C34.7,26.7,33.4,27.4,32,27.4z M32,18c-1.6-0.2-3,1-3.2,2.5
								c0,0.2,0,0.4,0,0.6c0,1.2,0.4,2.3,1.1,3.2c0.9,1.1,2.5,1.4,3.7,0.5c0.2-0.1,0.3-0.3,0.5-0.5c0.7-0.9,1.1-2,1.1-3.2
								c0.2-1.6-1-3-2.6-3.2C32.4,18,32.2,18,32,18z"/>
						</g>
					</g>
					<g id="_Group_26">
						<g id="_Group_27">
							<path class="st0" d="M32,45.6c-10.3,0-18.6-8.3-18.6-18.6c0-10.3,8.3-18.6,18.6-18.6c3.2,0,6.3,0.8,9.1,2.4l9.5-2.4l-2.4,9.5
								c5,8.9,1.9,20.3-7,25.3C38.4,44.8,35.2,45.6,32,45.6z M32,10.4c-9.2,0-16.6,7.4-16.6,16.6c0,9.2,7.4,16.6,16.6,16.6
								c9.2,0,16.6-7.4,16.6-16.6c0-3-0.8-5.9-2.3-8.5L46,18.2l1.8-7l-7,1.8l-0.4-0.2C37.9,11.3,35,10.4,32,10.4z"/>
						</g>
						<g id="_Group_28">
							
								<rect x="42" y="11.8" transform="matrix(0.7071 -0.7071 0.7071 0.7071 4.5033 36.4247)" class="st0" width="8.4" height="2"/>
						</g>
					</g>
				</g>
			</g>
			<g id="_Group_29">
				<g id="_Group_30">
					<rect x="43" y="61" class="st0" width="15" height="2"/>
				</g>
				<g id="_Group_31">
					<rect x="24" y="57" class="st0" width="34" height="2"/>
				</g>
				<g id="_Group_32">
					<rect x="45" y="42" transform="matrix(1.221725e-03 -1 1 1.221725e-03 -8.0921 99.94)" class="st0" width="2" height="24"/>
				</g>
				<g id="_Group_33">
					<rect x="33" y="52" class="st0" width="2" height="4"/>
				</g>
				<g id="_Group_34">
					<rect x="23" y="56" class="st0" width="2" height="4"/>
				</g>
				<g id="_Group_35">
					<rect x="42" y="60" class="st0" width="2" height="4"/>
				</g>
				<g id="_Group_36">
					<rect x="6" y="53" class="st0" width="25" height="2"/>
				</g>
				<g id="_Group_37">
					<rect x="22" y="45" transform="matrix(1.919872e-03 -1 1 1.919872e-03 -39.0286 84.8444)" class="st0" width="2" height="34"/>
				</g>
				<g id="_Group_38">
					
						<rect x="12.5" y="50.5" transform="matrix(4.188741e-03 -1 1 4.188741e-03 -44.5388 71.23)" class="st0" width="2" height="15"/>
				</g>
			</g>
		</g>
	</g>
</g>
</svg>
