<?xml version="1.0" encoding="utf-8"?>
<!-- Generator: Adobe Illustrator 20.0.0, SVG Export Plug-In . SVG Version: 6.00 Build 0)  -->
<svg version="1.1" id="Layer_1" xmlns="http://www.w3.org/2000/svg" xmlns:xlink="http://www.w3.org/1999/xlink" x="0px" y="0px"
	 viewBox="0 0 64 64" style="enable-background:new 0 0 64 64;" xml:space="preserve">
<style type="text/css">
	.st0{fill:#1D1F21;}
</style>
<title>Asset 49</title>
<g id="Layer_2">
	<g id="Layer_1-2">
		<path class="st0" d="M58.8,52.6H40.3v-2.1h18.6c1.7,0,3.1-1.4,3.1-3.1V10.3c0-1.7-1.4-3.1-3.1-3.1H5.2c-1.7,0-3.1,1.4-3.1,3.1v8.3
			H0v-8.3c0-2.8,2.3-5.2,5.2-5.2h53.7c2.8,0,5.2,2.3,5.2,5.2v37.2C64,50.3,61.7,52.6,58.8,52.6z"/>
		<rect x="43.3" y="51.6" class="st0" width="2.1" height="6.2"/>
		<rect x="27.9" y="56.8" class="st0" width="21.7" height="2.1"/>
		<rect x="40.3" y="44.4" class="st0" width="22.7" height="2.1"/>
		<polygon class="st0" points="59.9,29.9 40.3,29.9 40.3,27.9 57.8,27.9 57.8,11.4 6.2,11.4 6.2,14.4 4.1,14.4 4.1,9.3 59.9,9.3 		
			"/>
		<polygon class="st0" points="47.5,42.3 40.3,42.3 40.3,40.3 45.4,40.3 45.4,34.1 40.3,34.1 40.3,32 47.5,32 		"/>
		<rect x="49.5" y="32" class="st0" width="10.3" height="2.1"/>
		<rect x="49.5" y="36.1" class="st0" width="10.3" height="2.1"/>
		<rect x="49.5" y="40.3" class="st0" width="10.3" height="2.1"/>
		<path class="st0" d="M21.7,58.8H3.1c-1.7,0-3.1-1.4-3.1-3.1V16.5c0-1.7,1.4-3.1,3.1-3.1c0,0,0,0,0,0h24.8c1.7,0,3.1,1.4,3.1,3.1
			l0,0v6.2h-2.1v-6.2c0-0.6-0.4-1-1-1H3.1c-0.6,0-1,0.4-1,1v39.2c0,0.6,0.4,1,1,1h18.6V58.8z"/>
		<path class="st0" d="M16.5,32H4.1V21.7h12.4V32z M6.2,29.9h8.3v-6.2H6.2V29.9z"/>
		<path class="st0" d="M16.5,44.4H4.1V34.1h12.4V44.4z M6.2,42.3h8.3v-6.2H6.2V42.3z"/>
		<rect x="1" y="50.6" class="st0" width="18.6" height="2.1"/>
		<rect x="1" y="17.5" class="st0" width="28.9" height="2.1"/>
		<rect x="4.1" y="46.5" class="st0" width="15.5" height="2.1"/>
		<path class="st0" d="M38.2,58.8H21.7c-1.7,0-3.1-1.4-3.1-3.1v-31c0-1.7,1.4-3.1,3.1-3.1l0,0h16.5c1.7,0,3.1,1.4,3.1,3.1v31
			C41.3,57.5,39.9,58.8,38.2,58.8z M21.7,23.7c-0.6,0-1,0.4-1,1v31c0,0.6,0.4,1,1,1h16.5c0.6,0,1-0.4,1-1v-31c0-0.6-0.4-1-1-1
			L21.7,23.7z"/>
		<rect x="19.6" y="52.6" class="st0" width="20.7" height="2.1"/>
		<rect x="19.6" y="25.8" class="st0" width="20.7" height="2.1"/>
		<path class="st0" d="M37.2,42.3H22.7V29.9h14.5V42.3z M24.8,40.3h10.3V32H24.8V40.3z"/>
		<rect x="22.7" y="44.4" class="st0" width="14.5" height="2.1"/>
		<rect x="22.7" y="48.5" class="st0" width="14.5" height="2.1"/>
	</g>
</g>
</svg>
