<svg xmlns="http://www.w3.org/2000/svg" viewBox="0 0 64 64"><defs><style>.cls-1{fill:#1d1f21;}</style></defs><title>Asset 69</title><g id="Layer_2" data-name="Layer 2"><g id="Layer_1-2" data-name="Layer 1"><polygon class="cls-1" points="59 46 5 46 5 14 10 14 10 16 7 16 7 44 57 44 57 16 54 16 54 14 59 14 59 46"/><path class="cls-1" d="M55,40H9V0H55ZM11,38H53V2H11Z"/><path class="cls-1" d="M16,28a3,3,0,1,1,3-3A3,3,0,0,1,16,28Zm0-4a1,1,0,1,0,1,1A1,1,0,0,0,16,24Z"/><path class="cls-1" d="M26,19a3,3,0,1,1,3-3A3,3,0,0,1,26,19Zm0-4a1,1,0,1,0,1,1A1,1,0,0,0,26,15Z"/><path class="cls-1" d="M38,23a3,3,0,1,1,3-3A3,3,0,0,1,38,23Zm0-4a1,1,0,1,0,1,1A1,1,0,0,0,38,19Z"/><path class="cls-1" d="M48,12a3,3,0,1,1,3-3A3,3,0,0,1,48,12Zm0-4a1,1,0,1,0,1,1A1,1,0,0,0,48,8Z"/><rect class="cls-1" x="15.68" y="19.5" width="10.63" height="2" transform="translate(-8.3 18.89) rotate(-41.16)"/><rect class="cls-1" x="31.5" y="13.39" width="2" height="9.22" transform="translate(7.88 45.82) rotate(-77.47)"/><rect class="cls-1" x="36.98" y="13.5" width="12.04" height="2" transform="translate(3.59 37) rotate(-48.37)"/><rect class="cls-1" x="15" y="30" width="2" height="2"/><rect class="cls-1" x="25" y="21" width="2" height="11"/><rect class="cls-1" x="37" y="25" width="2" height="7"/><rect class="cls-1" x="47" y="14" width="2" height="18"/><rect class="cls-1" x="47" y="34" width="2" height="2"/><rect class="cls-1" x="15" y="34" width="2" height="2"/><rect class="cls-1" x="25" y="34" width="2" height="2"/><rect class="cls-1" x="37" y="34" width="2" height="2"/><g id="_Group_" data-name="&lt;Group&gt;"><rect class="cls-1" x="19" y="62" width="26" height="2"/></g><g id="_Group_2" data-name="&lt;Group&gt;"><rect class="cls-1" x="3" y="48" width="58" height="2"/></g><g id="_Group_3" data-name="&lt;Group&gt;"><path class="cls-1" d="M42.34,64H21.66l3.6-12H38.74Zm-18-2H39.66l-2.4-8H26.74Z"/></g><path class="cls-1" d="M59.08,8H54.33v2h4.75A2.92,2.92,0,0,1,62,12.92V49.08A2.92,2.92,0,0,1,59.08,52H4.92A2.92,2.92,0,0,1,2,49.08V12.92A2.92,2.92,0,0,1,4.92,10H9.58V8H4.92A4.92,4.92,0,0,0,0,12.92V49.08A4.92,4.92,0,0,0,4.92,54H59.08A4.92,4.92,0,0,0,64,49.08V12.92A4.92,4.92,0,0,0,59.08,8Z"/></g></g></svg>