<?xml version="1.0" encoding="utf-8"?>
<!-- Generator: Adobe Illustrator 20.0.0, SVG Export Plug-In . SVG Version: 6.00 Build 0)  -->
<svg version="1.1" id="Layer_1" xmlns="http://www.w3.org/2000/svg" xmlns:xlink="http://www.w3.org/1999/xlink" x="0px" y="0px"
	 viewBox="0 0 64 64" style="enable-background:new 0 0 64 64;" xml:space="preserve">
<style type="text/css">
	.st0{fill:#1D1F21;}
</style>
<title>Asset 9</title>
<g id="Layer_2">
	<g id="Layer_1-2">
		<g id="_Group_">
			<g id="_Group_2">
				<g id="_Group_3">
					<path class="st0" d="M59,56H37c-2.8,0-5-2.2-5-5V27h2v24c0,1.7,1.3,3,3,3h22c1.7,0,3-1.3,3-3V9c0-1.7-1.3-3-3-3H37
						c-1.7,0-3,1.3-3,3v12h-2V9c0-2.8,2.2-5,5-5h22c2.8,0,5,2.2,5,5v42C64,53.8,61.8,56,59,56z"/>
				</g>
				<g id="_Group_4">
					<rect x="33" y="10" class="st0" width="28" height="2"/>
				</g>
				<g id="_Group_5">
					<rect x="45" y="7.1" class="st0" width="6" height="2"/>
				</g>
				<g id="_Group_6">
					<rect x="35" y="48" class="st0" width="28" height="2"/>
				</g>
			</g>
			<g id="_Group_7">
				<g id="_Group_8">
					<rect x="32" y="23" class="st0" width="2" height="2"/>
				</g>
				<g id="_Group_9">
					<rect x="36" y="21" class="st0" width="2" height="2"/>
				</g>
				<g id="_Group_10">
					<rect x="36" y="25" class="st0" width="2" height="2"/>
				</g>
				<g id="_Group_11">
					<rect x="40" y="23" class="st0" width="2" height="2"/>
				</g>
				<g id="_Group_12">
					<rect x="40" y="19" class="st0" width="2" height="2"/>
				</g>
				<g id="_Group_13">
					<rect x="40" y="27" class="st0" width="2" height="2"/>
				</g>
				<g id="_Group_14">
					<rect x="44" y="25" class="st0" width="2" height="2"/>
				</g>
				<g id="_Group_15">
					<rect x="44" y="21" class="st0" width="2" height="2"/>
				</g>
				<g id="_Group_16">
					<rect x="44" y="17" class="st0" width="2" height="2"/>
				</g>
				<g id="_Group_17">
					<rect x="44" y="29" class="st0" width="2" height="2"/>
				</g>
				<g id="_Group_18">
					<rect x="48" y="27" class="st0" width="2" height="2"/>
				</g>
				<g id="_Group_19">
					<rect x="48" y="23" class="st0" width="2" height="2"/>
				</g>
				<g id="_Group_20">
					<rect x="48" y="19" class="st0" width="2" height="2"/>
				</g>
				<g id="_Group_21">
					<rect x="48" y="15" class="st0" width="2" height="2"/>
				</g>
				<g id="_Group_22">
					<rect x="48" y="31" class="st0" width="2" height="2"/>
				</g>
				<g id="_Group_23">
					<rect x="52" y="25" class="st0" width="2" height="2"/>
				</g>
				<g id="_Group_24">
					<rect x="52" y="21" class="st0" width="2" height="2"/>
				</g>
				<g id="_Group_25">
					<rect x="52" y="17" class="st0" width="2" height="2"/>
				</g>
				<g id="_Group_26">
					<rect x="52" y="13" class="st0" width="2" height="2"/>
				</g>
				<g id="_Group_27">
					<rect x="52" y="29" class="st0" width="2" height="2"/>
				</g>
				<g id="_Group_28">
					<rect x="52" y="33" class="st0" width="2" height="2"/>
				</g>
				<g id="_Group_29">
					<rect x="56" y="27" class="st0" width="2" height="2"/>
				</g>
				<g id="_Group_30">
					<rect x="56" y="23" class="st0" width="2" height="2"/>
				</g>
				<g id="_Group_31">
					<rect x="56" y="19" class="st0" width="2" height="2"/>
				</g>
				<g id="_Group_32">
					<rect x="56" y="15" class="st0" width="2" height="2"/>
				</g>
				<g id="_Group_33">
					<rect x="56" y="31" class="st0" width="2" height="2"/>
				</g>
				<g id="_Group_34">
					<rect x="56" y="35" class="st0" width="2" height="2"/>
				</g>
				<g id="_Group_35">
					<rect x="28" y="21" class="st0" width="2" height="2"/>
				</g>
				<g id="_Group_36">
					<rect x="28" y="25" class="st0" width="2" height="2"/>
				</g>
				<g id="_Group_37">
					<rect x="24" y="23" class="st0" width="2" height="2"/>
				</g>
				<g id="_Group_38">
					<rect x="24" y="19" class="st0" width="2" height="2"/>
				</g>
				<g id="_Group_39">
					<rect x="24" y="27" class="st0" width="2" height="2"/>
				</g>
				<g id="_Group_40">
					<rect x="20" y="25" class="st0" width="2" height="2"/>
				</g>
				<g id="_Group_41">
					<rect x="20" y="21" class="st0" width="2" height="2"/>
				</g>
				<g id="_Group_42">
					<rect x="20" y="17" class="st0" width="2" height="2"/>
				</g>
				<g id="_Group_43">
					<rect x="20" y="29" class="st0" width="2" height="2"/>
				</g>
				<g id="_Group_44">
					<rect x="16" y="27" class="st0" width="2" height="2"/>
				</g>
				<g id="_Group_45">
					<rect x="16" y="23" class="st0" width="2" height="2"/>
				</g>
				<g id="_Group_46">
					<rect x="16" y="19" class="st0" width="2" height="2"/>
				</g>
				<g id="_Group_47">
					<rect x="16" y="15" class="st0" width="2" height="2"/>
				</g>
				<g id="_Group_48">
					<rect x="16" y="31" class="st0" width="2" height="2"/>
				</g>
				<g id="_Group_49">
					<rect x="12" y="25" class="st0" width="2" height="2"/>
				</g>
				<g id="_Group_50">
					<rect x="12" y="21" class="st0" width="2" height="2"/>
				</g>
				<g id="_Group_51">
					<rect x="12" y="17" class="st0" width="2" height="2"/>
				</g>
				<g id="_Group_52">
					<rect x="12" y="13" class="st0" width="2" height="2"/>
				</g>
				<g id="_Group_53">
					<rect x="12" y="29" class="st0" width="2" height="2"/>
				</g>
				<g id="_Group_54">
					<rect x="12" y="33" class="st0" width="2" height="2"/>
				</g>
				<g id="_Group_55">
					<rect x="8" y="27" class="st0" width="2" height="2"/>
				</g>
				<g id="_Group_56">
					<rect x="8" y="23" class="st0" width="2" height="2"/>
				</g>
				<g id="_Group_57">
					<rect x="8" y="19" class="st0" width="2" height="2"/>
				</g>
				<g id="_Group_58">
					<rect x="8" y="15" class="st0" width="2" height="2"/>
				</g>
				<g id="_Group_59">
					<rect x="8" y="11" class="st0" width="2" height="2"/>
				</g>
				<g id="_Group_60">
					<rect x="8" y="31" class="st0" width="2" height="2"/>
				</g>
				<g id="_Group_61">
					<rect x="8" y="35" class="st0" width="2" height="2"/>
				</g>
			</g>
			<g id="_Group_62">
				<g id="_Group_63">
					<path class="st0" d="M30,50H4.9C2.2,50,0,47.8,0,45.1L0.1,8.9C0.1,6.2,2.3,4,5,4c0,0,0,0,0,0h27v2H5C3.4,6,2.1,7.3,2.1,8.9
						L2,45.1C2,46.7,3.3,48,4.9,48H30V50z"/>
				</g>
				<g id="_Group_64">
					<rect x="3" y="42" class="st0" width="27" height="2"/>
				</g>
				<g id="_Group_65">
					<rect x="29" y="45" class="st0" width="1" height="2"/>
				</g>
				<g id="_Group_66">
					<polygon class="st0" points="30,41 4,41 4,7 31,7 31,9 6,9 6,39 30,39 					"/>
				</g>
				<g id="_Group_67">
					<g id="_Group_68">
						<polygon class="st0" points="31,60 21.7,60 25.3,48 30,48 30,50 26.7,50 24.3,58 31,58 						"/>
					</g>
					<g id="_Group_69">
						<rect x="19.8" y="58" class="st0" width="24.1" height="2"/>
					</g>
					<g id="_Group_70">
						
							<rect x="39.8" y="57" transform="matrix(0.9578 -0.2874 0.2874 0.9578 -14.949 14.1592)" class="st0" width="2" height="2.1"/>
					</g>
				</g>
			</g>
		</g>
	</g>
</g>
</svg>
